<svg id="Layer_1" data-name="Layer 1" xmlns="http://www.w3.org/2000/svg" viewBox="0 0 1038.44 1080"><defs><style>.cls-1{fill:#cceae4;}.cls-2{fill:#a8dad0;}.cls-3{fill:#6cbea7;}</style></defs><path class="cls-1" d="M945,524.4,930.19,546C824,708,901.85,915.05,1065.82,1004.11L1229,1080h178.69L1107.82,917.11C965.09,839.59,900.61,674.12,945,524.4Z" transform="translate(-881.56)"/><path class="cls-2" d="M1417,0H1256.19a336.58,336.58,0,0,0-93.83,108.85L972.19,459A338.5,338.5,0,0,0,945,524.4L1172,195C1229,118,1343,0,1417,0Z" transform="translate(-881.56)"/><path class="cls-3" d="M1761.81,0H1417c-74,0-188,118-245,195L945,524.4c-44.43,149.72,20.05,315.19,162.78,392.71L1407.69,1080H1920V0Z" transform="translate(-881.56)"/></svg>