<?xml version="1.0" encoding="utf-8"?>
<!-- Generator: Adobe Illustrator 25.2.0, SVG Export Plug-In . SVG Version: 6.00 Build 0)  -->
<svg version="1.1" id="Layer_1" xmlns="http://www.w3.org/2000/svg" xmlns:xlink="http://www.w3.org/1999/xlink" x="0px" y="0px"
	 viewBox="0 0 654 1080" style="enable-background:new 0 0 654 1080;" xml:space="preserve">
<style type="text/css">
	.st0{fill:#CCEAE4;}
	.st1{fill:#A8DAD0;}
	.st2{fill:#6CBEA7;}
</style>
<path class="st0" d="M66.5,524.7l-14.8,21.6c-106.2,162-28.3,369,135.6,458.1l163.2,75.9h178.7L229.4,917.4
	C86.6,839.9,22.2,674.4,66.5,524.7z"/>
<path class="st1" d="M538.5,0.3H377.7C339,29.4,307,66.6,283.9,109.2L93.7,459.3c-11.3,20.8-20.4,42.7-27.2,65.4l227-329.4
	C350.5,118.3,464.5,0.3,538.5,0.3z"/>
<g>
	<path class="st2" d="M538.5,0.3c-74,0-188,118-245,195l-227,329.4c-44.4,149.7,20,315.2,162.8,392.7l299.9,162.9H658V0.3H538.5z"/>
</g>
</svg>
