<?xml version="1.0" encoding="utf-8"?>
<!-- Generator: Adobe Illustrator 25.2.0, SVG Export Plug-In . SVG Version: 6.00 Build 0)  -->
<svg version="1.1" id="Layer_1" xmlns="http://www.w3.org/2000/svg" xmlns:xlink="http://www.w3.org/1999/xlink" x="0px" y="0px"
	 viewBox="0 0 150 150" style="enable-background:new 0 0 150 150;" xml:space="preserve">
<style type="text/css">
	.st0{fill:#FFFFFF;}
</style>
<g>
	<path class="st0" d="M101,128.5H38c-2.5,0-4.5-2-4.5-4.5V25.9c0-2.5,2-4.5,4.5-4.5h63c2.5,0,4.5,2,4.5,4.5V46c0,2.5-2,4.5-4.5,4.5
		s-4.5-2-4.5-4.5V30.4h-54v89.1h54V105c0-2.5,2-4.5,4.5-4.5s4.5,2,4.5,4.5v19C105.5,126.5,103.5,128.5,101,128.5z"/>
</g>
<path class="st0" d="M123.7,75.5c0-0.1,0-0.1,0-0.2c0-0.3,0-0.5,0-0.8c0-0.1,0-0.1,0-0.2c0-0.2-0.1-0.4-0.1-0.6
	c0-0.1-0.1-0.2-0.1-0.3c-0.1-0.2-0.1-0.3-0.2-0.5c0-0.1-0.1-0.2-0.1-0.2c-0.1-0.2-0.3-0.5-0.5-0.7l0,0c0,0,0,0-0.1-0.1
	s-0.3-0.3-0.4-0.4l-16.2-14c-1.9-1.6-4.7-1.4-6.3,0.5c-1.6,1.9-1.4,4.7,0.5,6.3l7.1,6.1H72c-2.5,0-4.5,2-4.5,4.5s2,4.5,4.5,4.5h35.1
	l-7.1,6.1c-1.9,1.6-2.1,4.5-0.5,6.3c0.9,1,2.1,1.6,3.4,1.6c1,0,2.1-0.4,2.9-1.1l16.2-14c0,0,0,0,0.1-0.1c0.2-0.2,0.4-0.4,0.6-0.6
	c0,0,0-0.1,0.1-0.1c0.1-0.2,0.3-0.4,0.4-0.6c0-0.1,0.1-0.2,0.1-0.3c0-0.1,0.1-0.2,0.1-0.3c0-0.1,0-0.2,0.1-0.2
	c0-0.1,0.1-0.2,0.1-0.3C123.6,75.9,123.7,75.7,123.7,75.5z"/>
</svg>
