<svg id="Layer_1" data-name="Layer 1" xmlns="http://www.w3.org/2000/svg" viewBox="0 0 238.9 69.94"><path d="M267.25,103.6c.08-1,.12-1.87.12-3V90.68c0-5.06-1.83-7.37-5.82-7.37a6.69,6.69,0,0,0-6.9,7.09v10.17c0,1.16,0,2,.12,3h-1.15c.07-1,.11-1.87.11-3V90.68c0-5.06-1.83-7.37-5.82-7.37A6.68,6.68,0,0,0,241,90.4v10.21c0,1.16,0,2,.12,3H240c.08-1,.12-1.83.12-3V85.86c0-1.2,0-2-.12-3h1v1.67a22,22,0,0,1-.16,3h.08a7.27,7.27,0,0,1,7.13-5.06c3.55,0,5.74,1.87,6.38,5.42a7.1,7.1,0,0,1,7.26-5.42c4.26,0,6.58,2.71,6.58,7.81v10.29c0,1.16,0,2,.12,3Z" transform="translate(-144.1 -59.06)"/><path d="M275.31,92.92v.2c0,6.06,3.5,10,8.85,10a9.67,9.67,0,0,0,5.66-1.71,7.3,7.3,0,0,0,1.59-1.6l.64.6a11,11,0,0,1-1.51,1.44,10.2,10.2,0,0,1-6.38,2.11c-5.78,0-9.77-4.43-9.77-10.88,0-6.7,3.59-10.77,9.45-10.77,5.58,0,8.73,3.55,8.73,9.85v.72Zm16.34-.8c0-5.74-2.79-8.93-7.85-8.93s-8.13,3.35-8.45,8.93Z" transform="translate(-144.1 -59.06)"/><path d="M300.47,84a1.26,1.26,0,1,1-1.28-1.27A1.26,1.26,0,0,1,300.47,84Zm0,18.74a1.26,1.26,0,1,1-1.28-1.27A1.26,1.26,0,0,1,300.47,102.76Z" transform="translate(-144.1 -59.06)"/><path d="M306.77,92.92v.2c0,6.06,3.5,10,8.85,10a9.67,9.67,0,0,0,5.66-1.71,7.53,7.53,0,0,0,1.59-1.6l.64.6a11,11,0,0,1-1.51,1.44,10.2,10.2,0,0,1-6.38,2.11c-5.78,0-9.77-4.43-9.77-10.88,0-6.7,3.59-10.77,9.45-10.77,5.58,0,8.73,3.55,8.73,9.85v.72Zm16.34-.8c0-5.74-2.79-8.93-7.85-8.93s-8.14,3.35-8.45,8.93Z" transform="translate(-144.1 -59.06)"/><path d="M357.28,103.6c.08-1,.12-1.87.12-3V90.68c0-5.06-1.83-7.37-5.82-7.37a6.69,6.69,0,0,0-6.9,7.09v10.17c0,1.16,0,2,.12,3h-1.15c.08-1,.12-1.87.12-3V90.68c0-5.06-1.84-7.37-5.83-7.37a6.68,6.68,0,0,0-6.89,7.09v10.21c0,1.16,0,2,.12,3H330c.08-1,.12-1.83.12-3V85.86c0-1.2,0-2-.12-3h1v1.67a22,22,0,0,1-.16,3H331a7.27,7.27,0,0,1,7.13-5.06c3.55,0,5.74,1.87,6.38,5.42a7.1,7.1,0,0,1,7.26-5.42c4.27,0,6.58,2.71,6.58,7.81v10.29c0,1.16,0,2,.12,3Z" transform="translate(-144.1 -59.06)"/><path d="M383,93.28c0,6.49-3.67,10.72-9.29,10.72s-9.29-4.39-9.29-10.81,3.67-10.72,9.29-10.72S383,86.86,383,93.28Zm-.92,0c0-6-3.27-10-8.37-10s-8.37,3.83-8.37,9.88,3.27,10,8.37,10S382.08,99.34,382.08,93.28Z" transform="translate(-144.1 -59.06)"/><path d="M157.59,102.09c-2.09-3.93-1.14-8.74,2.28-12.6s7.63-4.78,11.88-2.3c-2.53-4-1.94-8.93,1.72-13.06,4.25-4.8,9.31-5,14.51-.37L198.45,83c1.17,1,2.07,1.75,3.2,2.59l-1.15,1.31c-1-1-1.79-1.83-3-2.87l-10.06-8.91c-5.15-4.56-9.33-4.58-13.31-.09-4,4.67-3.91,10.39.35,14.17l10.34,9.16c1.18,1,2.07,1.75,3.21,2.59l-1.16,1.3c-1-1-1.79-1.82-3-2.86l-10.06-8.91c-5.16-4.56-9.34-4.58-13.31-.09-4.06,4.66-3.92,10.39.34,14.16l10.39,9.2c1.18,1,2.07,1.75,3.16,2.56l-1.15,1.3c-.94-1-1.75-1.79-2.93-2.83l-10-9.35A14,14,0,0,1,157.59,102.09Z" transform="translate(-144.1 -59.06)"/><path d="M192.34,129H165.81a21.74,21.74,0,0,1-21.71-21.71V80.76a21.73,21.73,0,0,1,21.71-21.7h26.53A21.72,21.72,0,0,1,214,80.76v26.53A21.73,21.73,0,0,1,192.34,129ZM165.81,60.52a20.27,20.27,0,0,0-20.25,20.24v26.53a20.27,20.27,0,0,0,20.25,20.25h26.53a20.27,20.27,0,0,0,20.24-20.25V80.76a20.26,20.26,0,0,0-20.24-20.24Z" transform="translate(-144.1 -59.06)"/></svg>