<?xml version="1.0" encoding="utf-8"?>
<!-- Generator: Adobe Illustrator 25.2.0, SVG Export Plug-In . SVG Version: 6.00 Build 0)  -->
<svg version="1.1" id="Layer_1" xmlns="http://www.w3.org/2000/svg" xmlns:xlink="http://www.w3.org/1999/xlink" x="0px" y="0px"
	 viewBox="0 0 239.5 70.2" style="enable-background:new 0 0 239.5 70.2;" xml:space="preserve">
<style type="text/css">
	.st0{fill:#FFFFFF;stroke:#FFFFFF;stroke-miterlimit:10;}
	.st1{fill:#FFFFFF;stroke:#FFFFFF;stroke-width:0.25;}
	.st2{fill:#FFFFFF;stroke:#FFFFFF;stroke-width:0.25;stroke-miterlimit:10;}
</style>
<path class="st0" d="M123.2,44.7c0.1-1,0.1-1.9,0.1-3v-9.9c0-5.1-1.8-7.4-5.8-7.4c-3.7-0.1-6.8,2.8-6.9,6.5c0,0.2,0,0.4,0,0.6v10.1
	c0,1.2,0,2,0.1,3h-1.1c0.1-1,0.1-1.9,0.1-3v-9.9c0-5.1-1.8-7.4-5.8-7.4c-3.7-0.1-6.8,2.8-6.9,6.5c0,0.2,0,0.4,0,0.6v10.2
	c0,1.2,0,2,0.1,3H96c0.1-1,0.1-1.8,0.1-3V26.9c0-1.2,0-2-0.1-3h1v1.7c0,1,0,2-0.2,3h0.1c1-3.1,3.9-5.1,7.1-5.1
	c3.5,0,5.7,1.9,6.4,5.4c0.8-3.3,3.8-5.6,7.2-5.4c4.3,0,6.6,2.7,6.6,7.8v10.2c0,1.2,0,2,0.1,3L123.2,44.7z"/>
<path class="st0" d="M131.3,34v0.2c0,6.1,3.5,10,8.9,10c2,0,4-0.6,5.7-1.7c0.6-0.5,1.1-1,1.6-1.6l0.6,0.6c-0.5,0.5-1,1-1.5,1.4
	c-1.8,1.4-4.1,2.1-6.4,2.1c-5.8,0-9.8-4.4-9.8-10.9c0-6.7,3.6-10.8,9.5-10.8c5.6,0,8.7,3.6,8.7,9.8V34L131.3,34z M147.7,33.2
	c0-5.7-2.8-8.9-7.9-8.9s-8.1,3.4-8.5,8.9H147.7z"/>
<path class="st0" d="M156.5,25.1c0,0.7-0.6,1.3-1.3,1.2c0,0,0,0,0,0c-0.7-0.1-1.2-0.7-1.1-1.4c0.1-0.6,0.5-1.1,1.1-1.1
	C155.9,23.8,156.5,24.4,156.5,25.1C156.5,25.1,156.5,25.1,156.5,25.1z M156.5,43.8c0,0.7-0.6,1.3-1.3,1.2c0,0,0,0,0,0
	c-0.7-0.1-1.2-0.7-1.1-1.4c0.1-0.6,0.5-1.1,1.1-1.1C155.9,42.5,156.5,43.1,156.5,43.8C156.5,43.8,156.5,43.8,156.5,43.8z"/>
<path class="st0" d="M162.8,34v0.2c0,6.1,3.5,10,8.9,10c2,0,4-0.6,5.7-1.7c0.6-0.5,1.1-1,1.6-1.6l0.6,0.6c-0.5,0.5-1,1-1.5,1.4
	c-1.8,1.4-4.1,2.1-6.4,2.1c-5.8,0-9.8-4.4-9.8-10.9c0-6.7,3.6-10.8,9.5-10.8c5.6,0,8.7,3.6,8.7,9.8V34L162.8,34z M179.1,33.2
	c0-5.7-2.8-8.9-7.9-8.9s-8.1,3.4-8.5,8.9H179.1z"/>
<path class="st0" d="M213.3,44.7c0.1-1,0.1-1.9,0.1-3v-9.9c0-5.1-1.8-7.4-5.8-7.4c-3.7-0.1-6.8,2.8-6.9,6.5c0,0.2,0,0.4,0,0.6v10.1
	c0,1.2,0,2,0.1,3h-1.2c0.1-1,0.1-1.9,0.1-3v-9.9c0-5.1-1.8-7.4-5.8-7.4c-3.7-0.1-6.8,2.8-6.9,6.5c0,0.2,0,0.4,0,0.6v10.2
	c0,1.2,0,2,0.1,3H186c0.1-1,0.1-1.8,0.1-3V26.9c0-1.2,0-2-0.1-3h1v1.7c0,1,0,2-0.2,3h0.1c1-3.1,3.9-5.1,7.1-5.1
	c3.5,0,5.7,1.9,6.4,5.4c0.8-3.3,3.8-5.6,7.2-5.4c4.3,0,6.6,2.7,6.6,7.8v10.2c0,1.2,0,2,0.1,3L213.3,44.7z"/>
<path class="st0" d="M239,34.3c0,6.5-3.7,10.7-9.3,10.7s-9.3-4.4-9.3-10.8s3.7-10.7,9.3-10.7S239,27.9,239,34.3z M238.1,34.3
	c0-6-3.3-10-8.4-10s-8.4,3.8-8.4,9.9s3.3,10,8.4,10S238.1,40.4,238.1,34.3z"/>
<path class="st1" d="M13.6,43.2c-2.1-3.9-1.1-8.7,2.3-12.6s7.6-4.8,11.9-2.3c-2.5-4-1.9-8.9,1.7-13.1c4.2-4.8,9.3-5,14.5-0.4
	l10.5,9.3c1.2,1,2.1,1.8,3.2,2.6L56.5,28c-1-1-1.8-1.8-3-2.9l-10.1-8.9c-5.1-4.6-9.3-4.6-13.3-0.1c-4,4.7-3.9,10.4,0.4,14.2
	l10.4,9.2c1,0.9,2.1,1.8,3.2,2.6l-1.1,1.3c-1-1-1.8-1.8-3-2.9l-10-8.9c-5.1-4.6-9.3-4.6-13.3-0.1c-4.1,4.7-3.9,10.4,0.3,14.2
	l10.4,9.2c1.2,1,2.1,1.8,3.2,2.6l-1.1,1.3c-0.9-1-1.8-1.8-2.9-2.8l-10.1-9.4C15.3,45.6,14.3,44.4,13.6,43.2z"/>
<path class="st2" d="M48.4,70.1H21.8c-12,0-21.7-9.7-21.7-21.7V21.8c0-12,9.7-21.7,21.7-21.7h26.5c12,0,21.7,9.7,21.7,21.7v26.5
	C70.1,60.3,60.3,70.1,48.4,70.1z M21.8,1.6c-11.2,0-20.2,9.1-20.2,20.2v26.5c0,11.2,9.1,20.2,20.2,20.2h26.5
	c11.2,0,20.2-9.1,20.2-20.2V21.8c0-11.2-9.1-20.2-20.2-20.2H21.8z"/>
</svg>
