<?xml version="1.0" encoding="utf-8"?>
<!-- Generator: Adobe Illustrator 25.2.0, SVG Export Plug-In . SVG Version: 6.00 Build 0)  -->
<svg version="1.1" id="Layer_1" xmlns="http://www.w3.org/2000/svg" xmlns:xlink="http://www.w3.org/1999/xlink" x="0px" y="0px"
	 viewBox="0 0 100 100" style="enable-background:new 0 0 100 100;" xml:space="preserve">
<style type="text/css">
	.st0{fill:#EFC90C;}
	.st1{fill:none;stroke:#EFC90C;stroke-width:5;stroke-linecap:round;stroke-miterlimit:10;}
</style>
<g>
	<g>
		<path class="st0" d="M59.6,68.9c-14.2-1.1-25.6-12.7-26.6-26.8C32.3,30.5,38.2,20.3,47.4,15c0.5-0.3,1.1-0.6,1.7-0.9
			c-0.7,0-1.4,0.1-2.2,0.2C28.4,16.3,14.2,32.4,15,51.7c0.8,18.1,15.3,33,33.4,34.3C67.6,87.3,85,73,86.6,55.3c0,0,0,0,0,0
			C81,63,71,69.8,59.6,68.9z"/>
	</g>
</g>
<line class="st1" x1="55" y1="27" x2="60.1" y2="27"/>
<line class="st1" x1="54" y1="38" x2="67.5" y2="38"/>
<line class="st1" x1="55" y1="49" x2="63.5" y2="49"/>
</svg>
