<?xml version="1.0" encoding="utf-8"?>
<!-- Generator: Adobe Illustrator 25.2.0, SVG Export Plug-In . SVG Version: 6.00 Build 0)  -->
<svg version="1.1" id="Layer_1" xmlns="http://www.w3.org/2000/svg" xmlns:xlink="http://www.w3.org/1999/xlink" x="0px" y="0px"
	 viewBox="0 0 100 100" style="enable-background:new 0 0 100 100;" xml:space="preserve">
<style type="text/css">
	.st0{fill:#FFFFFF;}
</style>
<path class="st0" d="M91.3,36.9c6,17.4-0.1,37.6-15.9,48.6C56.4,98.7,30.2,94,17,74.9S8.6,29.6,27.7,16.4c7.6-5.3,16.4-7.6,25-7.4
	l0.7-7.6L65,9.6l11.6,8.2l-12.9,6l-12.9,6l0.7-8.2c-5.7,0-11.5,1.7-16.7,5.2c-13.3,9.3-16.6,27.6-7.4,40.9s27.6,16.6,40.9,7.4
	c10.9-7.5,15.1-21,11.4-33L91.3,36.9z"/>
</svg>
