<?xml version="1.0" encoding="utf-8"?>
<!-- Generator: Adobe Illustrator 25.2.0, SVG Export Plug-In . SVG Version: 6.00 Build 0)  -->
<svg version="1.1" id="Layer_1" xmlns="http://www.w3.org/2000/svg" xmlns:xlink="http://www.w3.org/1999/xlink" x="0px" y="0px"
	 viewBox="0 0 100 100" style="enable-background:new 0 0 100 100;" xml:space="preserve">
<style type="text/css">
	.st0{fill:#FFFFFF;}
</style>
<path class="st0" d="M46,92C27.7,90.1,11.9,76.1,8.6,57.1C4.7,34.3,20,12.5,42.9,8.6S87.5,20,91.4,42.9C93,52,91.4,61,87.6,68.7
	l6.6,3.8l-12.3,7.1l-12.3,7.1l0-14.2l0-14.2l7.1,4.1C79.1,57.2,80,51.2,79,45c-2.8-16-18-26.7-34-24S18.3,39,21,55
	c2.2,13,12.7,22.5,25.1,24.2L46,92z"/>
</svg>
