<?xml version="1.0" encoding="utf-8"?>
<!-- Generator: Adobe Illustrator 25.2.0, SVG Export Plug-In . SVG Version: 6.00 Build 0)  -->
<svg version="1.1" id="Layer_1" xmlns="http://www.w3.org/2000/svg" xmlns:xlink="http://www.w3.org/1999/xlink" x="0px" y="0px"
	 viewBox="0 0 1038.4 1080" style="enable-background:new 0 0 1038.4 1080;" xml:space="preserve">
<style type="text/css">
	.st0{fill:#CCEAE4;}
	.st1{fill:#A8DAD0;}
	.st2{fill:#6CBEA7;}
</style>
<path class="st0" d="M290.7,524.4L275.9,546c-106.2,162-28.3,369,135.6,458.1l163.2,75.9h178.7L453.5,917.1
	C310.8,839.6,246.3,674.1,290.7,524.4z"/>
<path class="st1" d="M762.7,0H601.9c-38.7,29.1-70.8,66.2-93.8,108.8L317.9,459c-11.3,20.8-20.4,42.7-27.2,65.4l227-329.4
	C574.7,118,688.7,0,762.7,0z"/>
<g>
	<path class="st2" d="M762.7,0c-74,0-188,118-245,195l-227,329.4c-44.4,149.7,20,315.2,162.8,392.7L753.4,1080h285.1V0H762.7z"/>
</g>
</svg>
