<svg id="Layer_1" data-name="Layer 1" xmlns="http://www.w3.org/2000/svg" viewBox="0 0 239.53 70.19"><defs><style>.cls-1,.cls-2,.cls-3{stroke:#000;}.cls-1,.cls-3{stroke-miterlimit:10;}.cls-2,.cls-3{stroke-width:0.25px;}</style></defs><path class="cls-1" d="M285,269.06c.08-1,.12-1.87.12-3v-9.89c0-5.06-1.83-7.37-5.82-7.37a6.69,6.69,0,0,0-6.9,7.09V266c0,1.16,0,2,.12,3h-1.15c.08-1,.12-1.87.12-3v-9.89c0-5.06-1.84-7.37-5.82-7.37a6.69,6.69,0,0,0-6.9,7.09v10.21c0,1.16,0,2,.12,3h-1.16c.08-1,.12-1.83.12-3V251.32c0-1.2,0-2-.12-3h1V250a22,22,0,0,1-.16,3h.08a7.3,7.3,0,0,1,7.14-5.06c3.54,0,5.74,1.87,6.38,5.42a7.08,7.08,0,0,1,7.25-5.42c4.27,0,6.58,2.71,6.58,7.81V266c0,1.16,0,2,.12,3Z" transform="translate(-161.77 -224.39)"/><path class="cls-1" d="M293.1,258.38v.19c0,6.06,3.51,10.05,8.85,10.05a9.65,9.65,0,0,0,5.66-1.71,7.58,7.58,0,0,0,1.6-1.6l.63.6a9.94,9.94,0,0,1-1.51,1.44,10.2,10.2,0,0,1-6.38,2.11c-5.78,0-9.77-4.43-9.77-10.89,0-6.69,3.59-10.76,9.45-10.76,5.58,0,8.73,3.55,8.73,9.85v.72Zm16.35-.8c0-5.74-2.8-8.93-7.86-8.93s-8.13,3.35-8.45,8.93Z" transform="translate(-161.77 -224.39)"/><path class="cls-1" d="M318.26,249.48a1.26,1.26,0,0,1-1.28,1.24,1.26,1.26,0,0,1,0-2.51A1.26,1.26,0,0,1,318.26,249.48Zm0,18.74a1.26,1.26,0,0,1-1.28,1.24,1.26,1.26,0,0,1,0-2.51A1.26,1.26,0,0,1,318.26,268.22Z" transform="translate(-161.77 -224.39)"/><path class="cls-1" d="M324.56,258.38v.19c0,6.06,3.51,10.05,8.85,10.05a9.65,9.65,0,0,0,5.66-1.71,7.58,7.58,0,0,0,1.6-1.6l.63.6a10.43,10.43,0,0,1-1.51,1.44,10.2,10.2,0,0,1-6.38,2.11c-5.78,0-9.77-4.43-9.77-10.89,0-6.69,3.59-10.76,9.45-10.76,5.58,0,8.73,3.55,8.73,9.85v.72Zm16.34-.8c0-5.74-2.79-8.93-7.85-8.93s-8.13,3.35-8.45,8.93Z" transform="translate(-161.77 -224.39)"/><path class="cls-1" d="M375.07,269.06c.08-1,.12-1.87.12-3v-9.89c0-5.06-1.83-7.37-5.82-7.37a6.68,6.68,0,0,0-6.89,7.09V266c0,1.16,0,2,.12,3h-1.16c.08-1,.12-1.87.12-3v-9.89c0-5.06-1.84-7.37-5.82-7.37a6.69,6.69,0,0,0-6.9,7.09v10.21c0,1.16,0,2,.12,3H347.8c.08-1,.12-1.83.12-3V251.32c0-1.2,0-2-.12-3h1V250a22,22,0,0,1-.16,3h.08a7.3,7.3,0,0,1,7.14-5.06c3.55,0,5.74,1.87,6.38,5.42a7.08,7.08,0,0,1,7.25-5.42c4.27,0,6.58,2.71,6.58,7.81V266c0,1.16,0,2,.12,3Z" transform="translate(-161.77 -224.39)"/><path class="cls-1" d="M400.79,258.73c0,6.5-3.67,10.73-9.29,10.73s-9.29-4.39-9.29-10.81,3.67-10.72,9.29-10.72S400.79,252.31,400.79,258.73Zm-.91,0c0-6-3.27-10-8.38-10s-8.37,3.82-8.37,9.88,3.27,10,8.37,10S399.88,264.79,399.88,258.73Z" transform="translate(-161.77 -224.39)"/><path class="cls-2" d="M175.39,267.55c-2.09-3.93-1.14-8.74,2.28-12.6s7.63-4.78,11.87-2.3c-2.53-4-1.94-8.93,1.72-13.06,4.25-4.81,9.32-5,14.51-.37l10.47,9.27c1.18,1,2.07,1.75,3.2,2.59l-1.15,1.3c-1-1-1.79-1.82-3-2.86l-10.07-8.91c-5.15-4.56-9.33-4.58-13.31-.09-4,4.66-3.91,10.39.35,14.17l10.35,9.15a39.33,39.33,0,0,0,3.2,2.6l-1.15,1.3c-1-1-1.79-1.82-3-2.86L191.67,256c-5.15-4.56-9.34-4.58-13.31-.09-4.06,4.66-3.92,10.39.34,14.16l10.39,9.2c1.18,1,2.07,1.75,3.16,2.56l-1.15,1.3c-.93-1-1.75-1.79-2.92-2.83l-10.06-9.36A13.64,13.64,0,0,1,175.39,267.55Z" transform="translate(-161.77 -224.39)"/><path class="cls-3" d="M210.13,294.46H183.6a21.74,21.74,0,0,1-21.71-21.71V246.22a21.73,21.73,0,0,1,21.71-21.7h26.53a21.73,21.73,0,0,1,21.71,21.7v26.53A21.74,21.74,0,0,1,210.13,294.46ZM183.6,226a20.27,20.27,0,0,0-20.25,20.24v26.53A20.27,20.27,0,0,0,183.6,293h26.53a20.27,20.27,0,0,0,20.24-20.25V246.22A20.26,20.26,0,0,0,210.13,226Z" transform="translate(-161.77 -224.39)"/></svg>